<svg width="73" height="59" viewBox="0 0 95 77" fill="none" xmlns="http://www.w3.org/2000/svg">
<path d="M11.7777 19.2007L0 38.4013L11.8296 57.7007L23.6592 77L47.4741 76.8519L71.2889 76.7532L83.1185 57.5526L95 38.4013L83.1704 19.2007L71.3927 0.0494232L47.4741 6.10352e-05H23.5554L11.7777 19.2007ZM76.633 22.6558C81.8733 31.1949 86.1797 38.2532 86.1797 38.352C86.1797 38.7468 67.8646 68.3622 67.0863 69.2506C66.3599 70.0404 64.9072 70.0897 47.1109 69.991L27.8618 69.843L18.1076 54.0481C9.28728 39.7834 8.45713 38.2039 9.07974 37.2661C9.44293 36.7231 13.3342 30.5039 17.6925 23.4456C22.0508 16.3872 26.2015 9.77313 26.876 8.7366L28.0694 6.91032L47.5778 7.00903L67.0863 7.1571L76.633 22.6558Z" fill="#84A8D1"/>
<path d="M43.9977 27.3448C35.7999 30.257 32.7388 39.9807 37.8753 46.7429C41.1959 51.1358 49.0304 52.8634 54.5301 50.4942C58.7328 48.6679 59.1997 47.9275 59.1997 43.1891V38.9935H56.0867H52.9736V42.3993C52.9736 46.1012 53.1293 45.9532 49.4974 46.6442C47.0588 47.0884 43.4269 45.4596 42.2855 43.3371C41.0403 41.116 41.0403 37.1673 42.3374 35.0942C44.5165 31.5897 50.0681 30.5532 53.4925 33.0211L54.9971 34.0577L56.398 32.3301C57.1244 31.3923 57.6432 30.3064 57.4876 29.9115C56.5018 27.5423 47.9927 25.9134 43.9977 27.3448Z" fill="#84A8D1"/>
</svg>
